<?xml version="1.0" encoding="utf-8"?>
<svg version="1.1" xmlns:xlink="http://www.w3.org/1999/xlink" width="80px" height="66px" xmlns="http://www.w3.org/2000/svg">
  <g transform="matrix(1 0 0 1 -335 -1479 )">
    <path d="M 70.55837563451776 10.415625000000002  C 73.70558375634518 10.071874999999999  76.8527918781726 9.21249999999999  80 7.837500000000001  C 77.73265651438241 11.206249999999994  74.99153976311337 14.076562499999998  71.77664974619289 16.448437500000004  C 71.81049069373942 16.929687499999996  71.8274111675127 17.651562499999994  71.8274111675127 18.614062499999996  C 71.8274111675127 23.082812499999992  71.1844331641286 27.542968749999996  69.8984771573604 31.994531249999998  C 68.61252115059222 36.446093749999996  66.65820642978004 40.7171875  64.03553299492386 44.807812500000004  C 61.41285956006769 48.8984375  58.29103214890018 52.516406249999996  54.67005076142132 55.66171875  C 51.04906937394247 58.80703125  46.68358714043993 61.31640625  41.57360406091371 63.18984375  C 36.46362098138748 65.06328124999999  30.998307952622678 66  25.17766497461929 66  C 16.00676818950931 66  7.614213197969542 63.5078125  0 58.5234375  C 1.1844331641285961 58.66093750000001  2.504230118443317 58.729687500000004  3.9593908629441628 58.729687500000004  C 11.57360406091371 58.729687500000004  18.35871404399323 56.3578125  24.314720812182742 51.614062499999996  C 20.761421319796955 51.545312499999994  17.580372250423014 50.43671874999999  14.771573604060915 48.288281250000004  C 11.962774957698816 46.13984374999999  10.033840947546533 43.39843749999999  8.98477157360406 40.0640625  C 10.101522842639595 40.2359375  11.1336717428088 40.321875  12.081218274111675 40.321875  C 13.536379018612521 40.321875  14.974619289340101 40.1328125  16.395939086294415 39.754687499999996  C 12.605752961082912 38.9640625  9.467005076142133 37.047656249999996  6.979695431472082 34.00546875  C 4.49238578680203 30.963281249999998  3.248730964467006 27.431250000000002  3.248730964467005 23.409375000000004  L 3.248730964467005 23.203125  C 5.549915397631135 24.509375  8.02030456852792 25.214062499999997  10.65989847715736 25.317187499999996  C 8.426395939086294 23.804687499999996  6.649746192893401 21.828124999999996  5.32994923857868 19.387499999999996  C 4.01015228426396 16.946874999999988  3.350253807106599 14.299999999999994  3.350253807106599 11.446875000000002  C 3.350253807106599 8.421874999999998  4.094754653130288 5.6203125000000025  5.583756345177665 3.042187500000003  C 9.678510998307953 8.164062499999998  14.661590524534688 12.263281249999999  20.532994923857867 15.33984375  C 26.404399323181053 18.41640625  32.69035532994924 20.1265625  39.390862944162436 20.470312500000002  C 39.12013536379019 19.164062499999996  38.984771573604064 17.892187499999995  38.984771573604064 16.654687499999998  C 38.984771573604064 12.04843749999999  40.58375634517766 8.12109375  43.78172588832487 4.872656250000001  C 46.97969543147208 1.624218750000003  50.84602368866329 0  55.380710659898476 0  C 60.118443316412865 0  64.11167512690355 1.753125000000003  67.36040609137055 5.259375000000001  C 71.04906937394247 4.537499999999999  74.51776649746192 3.1968750000000012  77.76649746192894 1.237500000000003  C 76.51438240270728 5.190624999999991  74.11167512690356 8.25  70.55837563451776 10.415625000000002  Z " fill-rule="nonzero" fill="#000000" stroke="none" transform="matrix(1 0 0 1 335 1479 )" />
  </g>
</svg>